<svg xmlns="http://www.w3.org/2000/svg" width="1280" height="720" viewBox="0 0 1280 720">
    <defs>
      <linearGradient id="graddocker-kubernetes" x1="0%" y1="0%" x2="100%" y2="100%">
        <stop offset="0%" stop-color="#075985" />
        <stop offset="100%" stop-color="#0EA5E9" />
      </linearGradient>
      <filter id="shadow" x="-20%" y="-20%" width="140%" height="140%">
        <feGaussianBlur stdDeviation="5" />
      </filter>
    </defs>
    <rect width="1280" height="720" fill="url(#graddocker-kubernetes)" />
    
    <!-- Background pattern -->
    <g opacity="0.1">
      <circle cx="1195.3149465922997" cy="142.02314082511785" r="60.68872807012275" fill="white" /><circle cx="246.60896366766508" cy="41.607605632029404" r="77.87684942333654" fill="white" /><circle cx="5.017198918456245" cy="695.292289521784" r="99.275503590748" fill="white" /><circle cx="446.1456797362129" cy="68.87730256547346" r="31.03808768409392" fill="white" /><circle cx="23.30631227798534" cy="2.3685968134380353" r="93.9232340809007" fill="white" /><circle cx="1187.056122541558" cy="425.15421201554415" r="56.56593379590969" fill="white" /><circle cx="928.6775753380837" cy="182.74671489096235" r="26.81632858879448" fill="white" /><circle cx="311.36898670575476" cy="632.0041288894903" r="99.67767834778385" fill="white" /><circle cx="802.5535194649791" cy="108.61843348634329" r="21.226811630376403" fill="white" /><circle cx="443.88755661589784" cy="462.09036806965275" r="73.51401655784215" fill="white" />
    </g>
    
    <!-- Title with shadow -->
    <g transform="translate(640, 400)">
      <text x="0" y="0" font-family="Arial, sans-serif" font-size="44" fill="black" text-anchor="middle" opacity="0.3" filter="url(#shadow)" dominant-baseline="middle">Docker & Kubernetes Tutorial</text>
      <text x="0" y="0" font-family="Arial, sans-serif" font-size="44" fill="white" text-anchor="middle" dominant-baseline="middle">Docker & Kubernetes Tutorial</text>
    </g>
    
    <!-- Play button with shadow -->
    <g transform="translate(640, 280)">
      <circle cx="0" cy="0" r="70" fill="black" opacity="0.3" filter="url(#shadow)" />
      <circle cx="0" cy="0" r="70" fill="rgba(0,0,0,0.5)" />
      <path d="M22 15.04c-.63-2.44-2.45-3.91-4.24-4.73.31-1.26.86-2.93.86-3.93 0-1.75-2.03-3.97-2.03-3.97s-1.42 2.15-1.42 3.9c0 1.02.3 2.54.79 3.92-1.86.18-3.39.92-4.93 1.71-.18-.35-.27-.58-.27-.58-2.22 1.13-2.76 5.5-2.76 5.5s2.56-.58 4.64-3.1c.32-.39.65-.83.99-1.3.78 1.39 1.18 3.05 1.23 4.95-.21.32-.44.67-.69 1.07-3.42-.11-6.13 1.03-6.13 1.03 2.64 3.21 8.13 2.12 9.11 1.93.67.14 1.28.2 1.84.2 3.11-.08 4.7-1.88 4.7-1.88-1.66-.3-3.55-.52-4.98-.58.39-.35.75-.69 1.07-1.04 1.23.04 3.77-.3 3.77-.3-.56-1.56-1.33-2.31-1.55-2.47 3.67-2.59.66-5.73.66-5.73-.76 1.68-3.68 4.4-3.68 4.4zm-10.02-2.33c-.16-.19-.34.06-.28.17.29.41.89 1.6 1.67 2.14.39.27 1.13.54 1.89.75-.05-.16-.11-.32-.15-.48-1.69-.46-2.95-2.33-3.13-2.58zm9.92 2.38c-.55.34-1.76.93-3.55.39-1.46-.45-1.88-2.1-1.88-2.1 1.23 1.36 3.37 1.51 3.37 1.51-1.28-1.15-1.6-3.18-1.6-3.18 1.73 1.72 2.71 3.21 3.32 4.28.13.22.35.74.8 1.06-.05-.66.05-1.6-.46-1.96z" fill="white"/>
    </g>
    
    <!-- Watermark/icon in corner -->
    <g transform="translate(50, 50)" opacity="0.7">
      <rect width="40" height="40" rx="5" fill="white" />
      <path d="M22 15.04c-.63-2.44-2.45-3.91-4.24-4.73.31-1.26.86-2.93.86-3.93 0-1.75-2.03-3.97-2.03-3.97s-1.42 2.15-1.42 3.9c0 1.02.3 2.54.79 3.92-1.86.18-3.39.92-4.93 1.71-.18-.35-.27-.58-.27-.58-2.22 1.13-2.76 5.5-2.76 5.5s2.56-.58 4.64-3.1c.32-.39.65-.83.99-1.3.78 1.39 1.18 3.05 1.23 4.95-.21.32-.44.67-.69 1.07-3.42-.11-6.13 1.03-6.13 1.03 2.64 3.21 8.13 2.12 9.11 1.93.67.14 1.28.2 1.84.2 3.11-.08 4.7-1.88 4.7-1.88-1.66-.3-3.55-.52-4.98-.58.39-.35.75-.69 1.07-1.04 1.23.04 3.77-.3 3.77-.3-.56-1.56-1.33-2.31-1.55-2.47 3.67-2.59.66-5.73.66-5.73-.76 1.68-3.68 4.4-3.68 4.4zm-10.02-2.33c-.16-.19-.34.06-.28.17.29.41.89 1.6 1.67 2.14.39.27 1.13.54 1.89.75-.05-.16-.11-.32-.15-.48-1.69-.46-2.95-2.33-3.13-2.58zm9.92 2.38c-.55.34-1.76.93-3.55.39-1.46-.45-1.88-2.1-1.88-2.1 1.23 1.36 3.37 1.51 3.37 1.51-1.28-1.15-1.6-3.18-1.6-3.18 1.73 1.72 2.71 3.21 3.32 4.28.13.22.35.74.8 1.06-.05-.66.05-1.6-.46-1.96z" fill="#075985"/>
    </g>
  </svg>