<svg xmlns="http://www.w3.org/2000/svg" width="1280" height="720" viewBox="0 0 1280 720">
    <defs>
      <linearGradient id="gradecommerce-app" x1="0%" y1="0%" x2="100%" y2="100%">
        <stop offset="0%" stop-color="#7E22CE" />
        <stop offset="100%" stop-color="#A855F7" />
      </linearGradient>
      <filter id="shadow" x="-20%" y="-20%" width="140%" height="140%">
        <feGaussianBlur stdDeviation="5" />
      </filter>
    </defs>
    <rect width="1280" height="720" fill="url(#gradecommerce-app)" />
    
    <!-- Background pattern -->
    <g opacity="0.1">
      <circle cx="530.2373118012654" cy="690.0061752301799" r="51.43539413086906" fill="white" /><circle cx="1047.9104997763961" cy="419.90794311308576" r="94.6230188784829" fill="white" /><circle cx="520.6091425400953" cy="296.9887677468413" r="31.454621744344085" fill="white" /><circle cx="1100.1110179599539" cy="655.5787527393525" r="28.505660823193413" fill="white" /><circle cx="670.7009053520005" cy="328.1169816726856" r="56.6155484180498" fill="white" /><circle cx="34.6655317686421" cy="669.0201431109919" r="47.940756765924526" fill="white" /><circle cx="49.11556088437834" cy="326.1229824204827" r="72.91905237153716" fill="white" /><circle cx="901.7986196262268" cy="13.717383492334463" r="57.370469836930184" fill="white" /><circle cx="567.8083819023423" cy="93.11223384174428" r="63.11175202507896" fill="white" /><circle cx="824.3916392673026" cy="132.50730582754687" r="80.0647573092371" fill="white" />
    </g>
    
    <!-- Title with shadow -->
    <g transform="translate(640, 400)">
      <text x="0" y="0" font-family="Arial, sans-serif" font-size="44" fill="black" text-anchor="middle" opacity="0.3" filter="url(#shadow)" dominant-baseline="middle">Build a Full Stack E-Commerce App</text>
      <text x="0" y="0" font-family="Arial, sans-serif" font-size="44" fill="white" text-anchor="middle" dominant-baseline="middle">Build a Full Stack E-Commerce App</text>
    </g>
    
    <!-- Play button with shadow -->
    <g transform="translate(640, 280)">
      <circle cx="0" cy="0" r="70" fill="black" opacity="0.3" filter="url(#shadow)" />
      <circle cx="0" cy="0" r="70" fill="rgba(0,0,0,0.5)" />
      <path d="M7 18c-1.1 0-1.99.9-1.99 2S5.9 22 7 22s2-.9 2-2-.9-2-2-2zM1 2v2h2l3.6 7.59-1.35 2.45c-.16.28-.25.61-.25.96 0 1.1.9 2 2 2h12v-2H7.42c-.14 0-.25-.11-.25-.25l.03-.12.9-1.63h7.45c.75 0 1.41-.41 1.75-1.03l3.58-6.49A1.003 1.003 0 0020 4H5.21l-.94-2H1zm16 16c-1.1 0-1.99.9-1.99 2s.89 2 1.99 2 2-.9 2-2-.9-2-2-2z" fill="white"/>
    </g>
    
    <!-- Watermark/icon in corner -->
    <g transform="translate(50, 50)" opacity="0.7">
      <rect width="40" height="40" rx="5" fill="white" />
      <path d="M7 18c-1.1 0-1.99.9-1.99 2S5.9 22 7 22s2-.9 2-2-.9-2-2-2zM1 2v2h2l3.6 7.59-1.35 2.45c-.16.28-.25.61-.25.96 0 1.1.9 2 2 2h12v-2H7.42c-.14 0-.25-.11-.25-.25l.03-.12.9-1.63h7.45c.75 0 1.41-.41 1.75-1.03l3.58-6.49A1.003 1.003 0 0020 4H5.21l-.94-2H1zm16 16c-1.1 0-1.99.9-1.99 2s.89 2 1.99 2 2-.9 2-2-.9-2-2-2z" fill="#7E22CE"/>
    </g>
  </svg>