<svg xmlns="http://www.w3.org/2000/svg" width="1280" height="720" viewBox="0 0 1280 720">
    <defs>
      <linearGradient id="gradmachine-learning" x1="0%" y1="0%" x2="100%" y2="100%">
        <stop offset="0%" stop-color="#6B21A8" />
        <stop offset="100%" stop-color="#A855F7" />
      </linearGradient>
      <filter id="shadow" x="-20%" y="-20%" width="140%" height="140%">
        <feGaussianBlur stdDeviation="5" />
      </filter>
    </defs>
    <rect width="1280" height="720" fill="url(#gradmachine-learning)" />
    
    <!-- Background pattern -->
    <g opacity="0.1">
      <circle cx="1091.7411370976595" cy="529.1764836505837" r="90.32273797196736" fill="white" /><circle cx="969.1069966481456" cy="622.0470135530343" r="92.93003043597729" fill="white" /><circle cx="807.6896034319464" cy="676.8279121370092" r="41.223192914325644" fill="white" /><circle cx="654.7957144531438" cy="44.001858404508845" r="37.20110633815018" fill="white" /><circle cx="1266.3303791964538" cy="445.1980586424824" r="87.00812061838172" fill="white" /><circle cx="845.7549864086116" cy="449.0651217075412" r="88.5733502316104" fill="white" /><circle cx="94.7087610992719" cy="588.7599932786826" r="53.530956839061986" fill="white" /><circle cx="457.61015035051685" cy="454.080783111924" r="50.89618296020973" fill="white" /><circle cx="477.03195379405656" cy="259.56808514405" r="73.72203502038766" fill="white" /><circle cx="2.637781584849108" cy="539.2701886388785" r="47.537411717406556" fill="white" />
    </g>
    
    <!-- Title with shadow -->
    <g transform="translate(640, 400)">
      <text x="0" y="0" font-family="Arial, sans-serif" font-size="44" fill="black" text-anchor="middle" opacity="0.3" filter="url(#shadow)" dominant-baseline="middle">Machine Learning Basics</text>
      <text x="0" y="0" font-family="Arial, sans-serif" font-size="44" fill="white" text-anchor="middle" dominant-baseline="middle">Machine Learning Basics</text>
    </g>
    
    <!-- Play button with shadow -->
    <g transform="translate(640, 280)">
      <circle cx="0" cy="0" r="70" fill="black" opacity="0.3" filter="url(#shadow)" />
      <circle cx="0" cy="0" r="70" fill="rgba(0,0,0,0.5)" />
      <path d="M12 3a9 9 0 00-9 9 9 9 0 009 9 9 9 0 009-9 9 9 0 00-9-9m0 16a7 7 0 01-7-7 7 7 0 017-7 7 7 0 017 7 7 7 0 01-7 7m-3.33-5.94L9 11.63l1.33 1.43L8 16l-1.33-1.33L9 12.34M12 8a1 1 0 00-1 1 1 1 0 001 1 1 1 0 001-1 1 1 0 00-1-1m4.33 7.73L15 17.06l-1.33-1.43 2.33-2.27L14.67 12 17 14.33l-.67 1.4z" fill="white"/>
    </g>
    
    <!-- Watermark/icon in corner -->
    <g transform="translate(50, 50)" opacity="0.7">
      <rect width="40" height="40" rx="5" fill="white" />
      <path d="M12 3a9 9 0 00-9 9 9 9 0 009 9 9 9 0 009-9 9 9 0 00-9-9m0 16a7 7 0 01-7-7 7 7 0 017-7 7 7 0 017 7 7 7 0 01-7 7m-3.33-5.94L9 11.63l1.33 1.43L8 16l-1.33-1.33L9 12.34M12 8a1 1 0 00-1 1 1 1 0 001 1 1 1 0 001-1 1 1 0 00-1-1m4.33 7.73L15 17.06l-1.33-1.43 2.33-2.27L14.67 12 17 14.33l-.67 1.4z" fill="#6B21A8"/>
    </g>
  </svg>