<svg xmlns="http://www.w3.org/2000/svg" width="1280" height="720" viewBox="0 0 1280 720">
    <defs>
      <linearGradient id="gradtailwind-course" x1="0%" y1="0%" x2="100%" y2="100%">
        <stop offset="0%" stop-color="#0F766E" />
        <stop offset="100%" stop-color="#14B8A6" />
      </linearGradient>
      <filter id="shadow" x="-20%" y="-20%" width="140%" height="140%">
        <feGaussianBlur stdDeviation="5" />
      </filter>
    </defs>
    <rect width="1280" height="720" fill="url(#gradtailwind-course)" />
    
    <!-- Background pattern -->
    <g opacity="0.1">
      <circle cx="379.9278552939549" cy="258.4288377901401" r="99.07960821183323" fill="white" /><circle cx="856.191719662319" cy="453.6351842910823" r="41.12774170647324" fill="white" /><circle cx="564.8980058253721" cy="362.6085406518116" r="24.753732648906386" fill="white" /><circle cx="932.8030713389771" cy="599.5820655414005" r="94.8769903269944" fill="white" /><circle cx="315.4629550218729" cy="53.96877175701022" r="24.7023786295596" fill="white" /><circle cx="1127.5953660731113" cy="327.4809730014403" r="49.67190164274699" fill="white" /><circle cx="90.68225421426462" cy="436.90951898080425" r="68.04754319518871" fill="white" /><circle cx="242.85235526737324" cy="384.9833506054151" r="79.75549724999394" fill="white" /><circle cx="1146.1866491506603" cy="683.8155550676673" r="27.005357759249904" fill="white" /><circle cx="1067.2641278692531" cy="670.7685622812435" r="61.08269425048601" fill="white" />
    </g>
    
    <!-- Title with shadow -->
    <g transform="translate(640, 400)">
      <text x="0" y="0" font-family="Arial, sans-serif" font-size="44" fill="black" text-anchor="middle" opacity="0.3" filter="url(#shadow)" dominant-baseline="middle">Tailwind CSS Full Course</text>
      <text x="0" y="0" font-family="Arial, sans-serif" font-size="44" fill="white" text-anchor="middle" dominant-baseline="middle">Tailwind CSS Full Course</text>
    </g>
    
    <!-- Play button with shadow -->
    <g transform="translate(640, 280)">
      <circle cx="0" cy="0" r="70" fill="black" opacity="0.3" filter="url(#shadow)" />
      <circle cx="0" cy="0" r="70" fill="rgba(0,0,0,0.5)" />
      <path d="M5.12 10L3 17.67l5.5.24-1.1 3.97 7.5-8.1L7.74 6l-2.62 4M15.5 20l-3.9-1.03 8.9-15.97 3 10.44-8 6.56z" fill="white"/>
    </g>
    
    <!-- Watermark/icon in corner -->
    <g transform="translate(50, 50)" opacity="0.7">
      <rect width="40" height="40" rx="5" fill="white" />
      <path d="M5.12 10L3 17.67l5.5.24-1.1 3.97 7.5-8.1L7.74 6l-2.62 4M15.5 20l-3.9-1.03 8.9-15.97 3 10.44-8 6.56z" fill="#0F766E"/>
    </g>
  </svg>